<?xml version="1.0" encoding="UTF-8"?>
<svg version="1.1" xmlns="http://www.w3.org/2000/svg" width="796" height="791">
<path d="M0 0 C262.68 0 525.36 0 796 0 C796 261.03 796 522.06 796 791 C533.32 791 270.64 791 0 791 C0 529.97 0 268.94 0 0 Z " fill="#FDFEFD" transform="translate(0,0)"/>
<path d="M0 0 C5.37006889 3.34863611 9.36672248 8.44762044 13.41796875 13.23046875 C15.04672941 15.15066257 15.04672941 15.15066257 17.5 17 C19.64209777 18.71367822 21.11084661 20.23934809 22.8515625 22.3203125 C28.1929179 28.49285532 34.07237818 34.14153542 39.875 39.875 C42.14609613 42.11952621 44.41386175 44.36734251 46.6796875 46.6171875 C47.19941132 47.12861298 47.71913513 47.64003845 48.25460815 48.16696167 C52.94080123 52.82076057 52.94080123 52.82076057 53.09765625 55.9453125 C53.06510417 57.96354167 53.03255208 59.98177083 53 62 C52.34 62 51.68 62 51 62 C50.92312454 62.56485107 50.84624908 63.12970215 50.76704407 63.71166992 C49.73099169 66.80253512 48.0392562 68.32050282 45.72729492 70.61328125 C44.81932663 71.52102295 43.91135834 72.42876465 42.97587585 73.36401367 C41.97756145 74.34699951 40.97908849 75.32982435 39.98046875 76.3125 C38.95949455 77.32787414 37.93918427 78.34391626 36.91950989 79.3605957 C34.23312385 82.03553443 31.5378602 84.70135122 28.84063721 87.36535645 C26.10649851 90.06890832 23.38072743 92.78086631 20.65429688 95.4921875 C15.84972422 100.26805851 11.03786019 105.03645611 6.22062683 109.79956055 C4.74505342 111.26171974 3.28253597 112.73717811 1.83369446 114.22583008 C-0.4630227 116.44799227 -1.56849618 116.94115857 -4.75 117.375 C-9.14558236 116.86781742 -10.91275851 115.08724149 -14 112 C-16.0251325 108.79901163 -16.23703132 106.33281912 -16.1953125 102.578125 C-16.18564453 101.04091797 -16.18564453 101.04091797 -16.17578125 99.47265625 C-16.15064453 97.87744141 -16.15064453 97.87744141 -16.125 96.25 C-16.11597656 95.17105469 -16.10695313 94.09210938 -16.09765625 92.98046875 C-16.07411305 90.32008722 -16.04122799 87.66015664 -16 85 C-26.37132361 85.03817853 -36.74228964 85.09771613 -47.11333179 85.18390274 C-51.92997842 85.2232727 -56.74644509 85.25551232 -61.56323242 85.27099609 C-66.21892972 85.28623207 -70.87413194 85.32079947 -75.52960777 85.36830902 C-77.29839441 85.38305163 -79.06725175 85.39103689 -80.83609962 85.39188385 C-93.08142669 85.40363509 -104.20178883 86.02125841 -114.1484375 94.10546875 C-121.55133807 101.68016659 -124.89129164 109.9494149 -125.375 120.3125 C-125.19701127 129.46620593 -121.61163602 138.13097034 -115.3203125 144.7734375 C-110.41067847 149.44646266 -105.39445276 151.88744545 -99 154 C-98.01 154.33 -97.02 154.66 -96 155 C-87.42 155.66 -78.84 156.32 -70 157 C-70 175.81 -70 194.62 -70 214 C-89.90439662 212.82915314 -89.90439662 212.82915314 -98.8125 211.1875 C-99.79677979 211.00864258 -100.78105957 210.82978516 -101.79516602 210.64550781 C-126.96611242 205.89949886 -149.85261804 192.87466082 -164.75 171.625 C-171.44386067 161.71913076 -175.99028362 151.56136243 -179 140 C-179.226875 139.16597656 -179.45375 138.33195313 -179.6875 137.47265625 C-184.59235605 115.91172653 -180.48690315 91.77069829 -169 73 C-166.51470345 69.16786585 -163.8625221 65.55793707 -161 62 C-160.34644531 61.16984375 -159.69289063 60.3396875 -159.01953125 59.484375 C-150.82601782 49.70749968 -140.00849203 41.42825229 -128 37 C-126.85917969 36.50886719 -125.71835937 36.01773438 -124.54296875 35.51171875 C-123.25811731 34.96542838 -121.97295896 34.41985931 -120.6875 33.875 C-119.51574219 33.37742188 -118.34398437 32.87984375 -117.13671875 32.3671875 C-105.49702463 28.1829808 -93.18977544 28.73419627 -81.015625 28.8046875 C-79.10463612 28.80842502 -77.1936453 28.81126849 -75.28265381 28.81326294 C-70.29161134 28.82084125 -65.30068822 28.84043885 -60.30969238 28.8626709 C-55.20126967 28.88325541 -50.09282737 28.89229142 -44.984375 28.90234375 C-34.98953136 28.92369107 -24.99477566 28.9577556 -15 29 C-15.02094727 28.29391602 -15.04189453 27.58783203 -15.06347656 26.86035156 C-15.14669298 23.65704624 -15.19867785 20.45396837 -15.25 17.25 C-15.28351563 16.13882813 -15.31703125 15.02765625 -15.3515625 13.8828125 C-15.36445313 12.81289062 -15.37734375 11.74296875 -15.390625 10.640625 C-15.41157227 9.65610352 -15.43251953 8.67158203 -15.45410156 7.65722656 C-14.8713058 4.24693137 -13.67977622 3.11841452 -11 1 C-7.20337565 -0.26554145 -3.91597569 -0.84214531 0 0 Z " fill="#36A0CD" transform="translate(488,154)"/>
<path d="M0 0 C2.97 0.495 2.97 0.495 6 1 C8.06361213 1.31634576 10.1274251 1.63138336 12.19140625 1.9453125 C40.38160113 6.38071844 64.69992268 13.12492912 85 34 C85.84433594 34.84691406 86.68867188 35.69382812 87.55859375 36.56640625 C95.25191392 44.64893317 100.32435666 53.71029813 104.3125 64.0625 C104.55508545 64.68656738 104.7976709 65.31063477 105.04760742 65.95361328 C108.53872899 75.52735705 109.36636797 85.18532076 109.3125 95.3125 C109.30512817 96.95943848 109.30512817 96.95943848 109.29760742 98.63964844 C108.98354721 120.42093215 100.97094067 139.42718374 87 156 C86.36449219 156.82886719 85.72898437 157.65773438 85.07421875 158.51171875 C78.59151234 166.28852475 69.99653279 171.59853991 61 176 C60.17371094 176.42925781 59.34742188 176.85851562 58.49609375 177.30078125 C43.15281514 184.86700872 28.10251872 186.73410939 11.2109375 186.48828125 C9.28611177 186.47892497 7.36127391 186.47182223 5.43643188 186.46684265 C0.43531867 186.44799396 -4.56503743 186.39909173 -9.56585693 186.34332275 C-14.69484218 186.29164506 -19.82395297 186.26922633 -24.953125 186.24414062 C-34.9690778 186.19094523 -44.98447531 186.10591043 -55 186 C-54.97905273 186.63502441 -54.95810547 187.27004883 -54.93652344 187.92431641 C-54.85295419 190.82438076 -54.80121226 193.72419116 -54.75 196.625 C-54.71648437 197.62402344 -54.68296875 198.62304688 -54.6484375 199.65234375 C-54.56723365 205.7832342 -54.83741359 209.37324029 -59 214 C-62.13319384 216.08879589 -64.09953742 216.60957177 -67.84689331 216.49848938 C-70.4895647 215.8866555 -71.6472457 214.91843775 -73.63720703 213.08666992 C-74.33259583 212.44877533 -75.02798462 211.81088074 -75.7444458 211.15365601 C-79.91848932 207.16818144 -84.03380816 203.12907208 -88.1171875 199.05078125 C-89.06496298 198.10622759 -90.0128098 197.1617455 -90.96072388 196.21733093 C-92.93065837 194.25333518 -94.89856567 192.28733406 -96.86523438 190.32006836 C-99.38191273 187.80328765 -101.90544842 185.29350299 -104.43072319 182.78535175 C-106.8515383 180.37831968 -109.26516104 177.96412139 -111.6796875 175.55078125 C-113.03741776 174.20382927 -113.03741776 174.20382927 -114.4225769 172.82966614 C-115.25749664 171.99166977 -116.09241638 171.1536734 -116.95263672 170.2902832 C-117.68795624 169.5563887 -118.42327576 168.8224942 -119.18087769 168.06636047 C-122.26994471 164.55745624 -123.31568817 161.71284589 -123.4375 157.0625 C-123.49744141 155.81146484 -123.49744141 155.81146484 -123.55859375 154.53515625 C-122.77025151 150.9572953 -120.62183754 149.35596106 -118 147 C-116.60327019 145.62727782 -115.21321275 144.24774948 -113.828125 142.86328125 C-112.70857422 141.75049805 -112.70857422 141.75049805 -111.56640625 140.61523438 C-110.80199219 139.85533203 -110.03757812 139.09542969 -109.25 138.3125 C-108.47011719 137.54099609 -107.69023437 136.76949219 -106.88671875 135.97460938 C-106.14550781 135.23662109 -105.40429688 134.49863281 -104.640625 133.73828125 C-103.96547852 133.06837158 -103.29033203 132.39846191 -102.59472656 131.70825195 C-100.91986953 130.07595037 -100.91986953 130.07595037 -100 128 C-99.34 128 -98.68 128 -98 128 C-97.77578369 127.45633789 -97.55156738 126.91267578 -97.32055664 126.35253906 C-94.54330558 121.40493484 -90.04657944 117.47364576 -86.08959961 113.44433594 C-84.99068511 112.31732742 -83.9016868 111.18056175 -82.82299805 110.03417969 C-73.89472649 100.54814686 -73.89472649 100.54814686 -69.31640625 99.22363281 C-64.86265694 99.15697071 -61.4230312 100.18103313 -58 103 C-55.11804182 106.16043561 -54.63631677 108.17900638 -54.70703125 112.421875 C-54.71669922 113.44667969 -54.72636719 114.47148437 -54.73632812 115.52734375 C-54.76146484 116.59082031 -54.78660156 117.65429688 -54.8125 118.75 C-54.83280273 120.36841797 -54.83280273 120.36841797 -54.85351562 122.01953125 C-54.88883416 124.6801942 -54.93815801 127.33984296 -55 130 C-44.25475169 130.00833456 -33.51009819 129.98422534 -22.76502609 129.9197216 C-17.77454008 129.89076071 -12.78452048 129.87259925 -7.79394531 129.87988281 C-2.9695325 129.88651379 1.85396174 129.8637783 6.67818451 129.82144547 C8.5103503 129.81038095 10.34261001 129.80955341 12.1747818 129.81957626 C24.15508509 129.8766656 34.08512575 129.24882576 43.4487915 120.78707886 C50.53539799 113.53336029 54.08005606 105.00599297 54.3125 94.9375 C54.1914752 85.11248673 51.46270226 77.12263152 44.4609375 70.0703125 C31.09675022 58.82742479 18.24044777 59.95433369 0 58 C0 38.86 0 19.72 0 0 Z " fill="#F08C38" transform="translate(418,311)"/>
<path d="M0 0 C0.495 1.485 0.495 1.485 1 3 C0.67 3.66 0.34 4.32 0 5 C-0.66 5 -1.32 5 -2 5 C-2.33 7.31 -2.66 9.62 -3 12 C-3.66 12 -4.32 12 -5 12 C-4.505 13.485 -4.505 13.485 -4 15 C-4.66 15 -5.32 15 -6 15 C-5.505 16.98 -5.505 16.98 -5 19 C-5.66 19 -6.32 19 -7 19 C-6.7215625 20.175625 -6.7215625 20.175625 -6.4375 21.375 C-6 24 -6 24 -7 26 C-8.27319756 46.29626695 -7.15933343 68.82156605 3 87 C3.99 87.99 3.99 87.99 5 89 C5.59918597 90.52778223 6.15630274 92.07226956 6.6875 93.625 C10.37907446 103.00944203 16.93596573 108.76472208 26 113 C36.65417901 116.04405115 47.95212439 116.15016341 59 117 C59 135.81 59 154.62 59 174 C39.09560338 172.82915314 39.09560338 172.82915314 30.1875 171.1875 C29.20322021 171.00864258 28.21894043 170.82978516 27.20483398 170.64550781 C2.03388758 165.89949886 -20.85261804 152.87466082 -35.75 131.625 C-42.44386067 121.71913076 -46.99028362 111.56136243 -50 100 C-50.226875 99.16597656 -50.45375 98.33195312 -50.6875 97.47265625 C-55.59235605 75.91172653 -51.48690315 51.77069829 -40 33 C-31.37050498 19.69398927 -19.99572083 4.98934045 -4 1 C-2 0 -2 0 0 0 Z " fill="#3891C6" transform="translate(359,194)"/>
<path d="M0 0 C1.29345337 0.21825439 1.29345337 0.21825439 2.61303711 0.44091797 C5.80256738 0.96741003 8.99550921 1.45922026 12.19140625 1.9453125 C40.38160113 6.38071844 64.69992268 13.12492912 85 34 C85.84433594 34.84691406 86.68867188 35.69382812 87.55859375 36.56640625 C95.25191392 44.64893317 100.32435666 53.71029813 104.3125 64.0625 C104.55508545 64.68656738 104.7976709 65.31063477 105.04760742 65.95361328 C108.53872899 75.52735705 109.36636797 85.18532076 109.3125 95.3125 C109.30512817 96.95943848 109.30512817 96.95943848 109.29760742 98.63964844 C108.98354721 120.42093215 100.97094067 139.42718374 87 156 C86.36449219 156.82886719 85.72898437 157.65773438 85.07421875 158.51171875 C78.76087548 166.08535276 70.03167175 172.10966842 61 176 C60.01 176 59.02 176 58 176 C59.75 169.25 59.75 169.25 62 167 C72.56620025 135.87295171 66.34554703 103.29925979 52.23828125 74.46484375 C48.30504835 66.56506033 44.19723361 58.7621972 40 51 C39.65469238 50.35401855 39.30938477 49.70803711 38.95361328 49.04248047 C29.28194507 31.02304089 16.53830436 16.2909608 2 2 C1.34 1.34 0.68 0.68 0 0 Z " fill="#F8AB3B" transform="translate(418,311)"/>
<path d="M0 0 C2.97 0 5.94 0 9 0 C9.66 2.31 10.32 4.62 11 7 C11.43570313 6.57847656 11.87140625 6.15695312 12.3203125 5.72265625 C16.14642823 2.20296105 18.6301913 0.21058073 24 0 C24.74121094 -0.0721875 25.48242188 -0.144375 26.24609375 -0.21875 C33.19198103 -0.6521907 38.27314509 1.07329637 44 5 C49.43010774 9.81279023 52.64791841 15.18795609 53.31640625 22.42578125 C53.64249879 32.89229972 52.451635 40.65147569 45.1875 48.4375 C39.48986199 53.6314794 34.1649017 55.60059047 26.49609375 55.35546875 C20.16970141 54.45452712 16.44637827 51.44637827 12 47 C11.67 55.91 11.34 64.82 11 74 C7.37 74 3.74 74 0 74 C0 49.58 0 25.16 0 0 Z " fill="#323B48" transform="translate(605,577)"/>
<path d="M0 0 C0.66233643 0.00704956 1.32467285 0.01409912 2.00708008 0.0213623 C4.4561172 0.05769525 6.90393453 0.15542813 9.3515625 0.24609375 C17.5809375 0.46265625 17.5809375 0.46265625 25.9765625 0.68359375 C25.9765625 18.17359375 25.9765625 35.66359375 25.9765625 53.68359375 C18.1803125 53.74546875 18.1803125 53.74546875 10.2265625 53.80859375 C8.59235352 53.82680176 6.95814453 53.84500977 5.27441406 53.86376953 C3.9850293 53.86876465 2.69564453 53.87375977 1.3671875 53.87890625 C-0.6123291 53.8946167 -0.6123291 53.8946167 -2.63183594 53.91064453 C-7.6510547 53.57463291 -7.6510547 53.57463291 -10.0234375 51.68359375 C-13.76875683 46.44956991 -14.64040003 42.49919818 -14.625 36.15234375 C-14.63357025 35.35759644 -14.6421405 34.56284912 -14.65097046 33.74401855 C-14.6623928 32.07336213 -14.66350508 30.40260631 -14.65478516 28.73193359 C-14.64845182 26.18934449 -14.69547946 23.65139174 -14.74609375 21.109375 C-14.75063973 19.4778704 -14.75204673 17.8463534 -14.75 16.21484375 C-14.76841949 15.46360229 -14.78683899 14.71236084 -14.80581665 13.93835449 C-14.71715827 8.83100119 -13.4068545 5.68488106 -9.83010864 1.98861694 C-6.75187007 -0.23490489 -3.63176301 -0.18489505 0 0 Z " fill="#3C94C6" transform="translate(147.0234375,557.31640625)"/>
<path d="M0 0 C5.15625 -0.0825 10.3125 -0.165 15.625 -0.25 C17.24100098 -0.28641602 18.85700195 -0.32283203 20.52197266 -0.36035156 C21.8063623 -0.3703418 23.09075195 -0.38033203 24.4140625 -0.390625 C25.7232666 -0.41157227 27.0324707 -0.43251953 28.38134766 -0.45410156 C32.59581564 0.07476839 34.72796925 1.34459983 38 4 C39.61222277 7.22444554 39.20563786 10.75251895 39.23828125 14.296875 C39.246353 15.12326477 39.25442474 15.94965454 39.26274109 16.80108643 C39.27658371 18.55291648 39.28730507 20.30477352 39.29516602 22.05664062 C39.31234417 24.72578696 39.35622289 27.39368331 39.40039062 30.0625 C39.41052082 31.7656159 39.4190359 33.46874233 39.42578125 35.171875 C39.44328934 35.96583679 39.46079742 36.75979858 39.47883606 37.57781982 C39.45845694 42.82924945 38.55584221 45.88464073 35 50 C31.5629153 52.59970281 28.02392319 52.22970429 23.828125 52.1953125 C22.5793457 52.19031738 21.33056641 52.18532227 20.04394531 52.18017578 C18.46194336 52.16196777 16.87994141 52.14375977 15.25 52.125 C7.70125 52.063125 7.70125 52.063125 0 52 C0 34.84 0 17.68 0 0 Z " fill="#F49336" transform="translate(667,559)"/>
<path d="M0 0 C4.87487391 4.99987067 6.23817347 9.03482333 6.4140625 15.953125 C6.43342865 16.61334656 6.4527948 17.27356812 6.4727478 17.95379639 C6.53229349 20.05240153 6.57882722 22.15106228 6.625 24.25 C6.66320294 25.6771066 6.70225602 27.10419072 6.7421875 28.53125 C6.8379733 32.02062691 6.92209642 35.51017286 7 39 C7.99 39.495 7.99 39.495 9 40 C9 43.3 9 46.6 9 50 C3.77984085 50.43501326 3.77984085 50.43501326 1 50 C-1.5 47.6875 -1.5 47.6875 -3 45 C-3 44.01 -3 43.02 -3 42 C-3.845625 42.763125 -4.69125 43.52625 -5.5625 44.3125 C-12.11655307 49.65283953 -17.59700048 50.57969644 -25.97265625 50.33984375 C-30.93560567 49.78271265 -33.33743748 48.00930016 -36.4609375 44.234375 C-39.92259122 39.3765847 -40.85774593 35.90891638 -40 30 C-37.59485538 25.36786962 -34.31980208 21.09485681 -29.18261719 19.40063477 C-26.60639935 18.92775183 -24.19775511 18.88779025 -21.578125 18.90234375 C-20.55332031 18.90556641 -19.52851562 18.90878906 -18.47265625 18.91210938 C-17.40917969 18.92048828 -16.34570312 18.92886719 -15.25 18.9375 C-14.17105469 18.94201172 -13.09210937 18.94652344 -11.98046875 18.95117188 C-9.32025617 18.96294273 -6.66015635 18.97938601 -4 19 C-4.22917968 17.39272673 -4.48420802 15.78912584 -4.75 14.1875 C-4.88921875 13.29417969 -5.0284375 12.40085937 -5.171875 11.48046875 C-6.18203654 8.45474905 -7.27134341 7.57625032 -10 6 C-16.31964431 5.0611391 -22.6471131 6.10079784 -28.80859375 7.5625 C-31 8 -31 8 -35 8 C-35.66 6.02 -36.32 4.04 -37 2 C-27.30903988 -5.99000638 -10.45478258 -6.99248445 0 0 Z " fill="#303A47" transform="translate(582,581)"/>
<path d="M0 0 C3.3 0 6.6 0 10 0 C14.33333333 13 18.66666667 26 23 39 C25.10634034 35.17187938 26.4245618 31.07643981 27.8203125 26.953125 C28.08383514 26.18192322 28.34735779 25.41072144 28.61886597 24.6161499 C29.45689661 22.16166191 30.29099802 19.70585944 31.125 17.25 C31.69375146 15.58194293 32.26275897 13.91397314 32.83203125 12.24609375 C34.22432334 8.16506798 35.61309389 4.08285914 37 0 C39.97 0 42.94 0 46 0 C50.29 13.2 54.58 26.4 59 40 C60.98244764 34.71347297 62.81558087 29.51376515 64.4375 24.125 C66.11059044 18.65969813 67.94965527 13.34181814 70.15234375 8.0625 C71.23918381 5.41802279 72.13931926 2.72548902 73 0 C75.97 0 78.94 0 82 0 C80.11316532 9.27693715 77.62960011 18.3466737 73.81860352 27.02734375 C71.80419156 31.88163799 70.2156018 36.90936331 68.51757812 41.88085938 C68.07381836 43.16766602 68.07381836 43.16766602 67.62109375 44.48046875 C67.3573999 45.25285889 67.09370605 46.02524902 66.82202148 46.82104492 C66 49 66 49 64 53 C61.03 53 58.06 53 55 53 C52.13634577 45.97015984 49.45398969 38.88880035 46.875 31.75 C46.52824219 30.79609375 46.18148437 29.8421875 45.82421875 28.859375 C44.15601614 24.25743677 42.53611208 19.64807056 41 15 C40.64172119 16.08007324 40.28344238 17.16014648 39.91430664 18.27294922 C38.58704688 22.27280276 37.25781421 26.27199831 35.92797852 30.27099609 C35.35224263 32.0032384 34.77704491 33.73565966 34.20239258 35.46826172 C33.37722283 37.95587439 32.55013196 40.44284108 31.72265625 42.9296875 C31.46533218 43.70682098 31.20800812 44.48395447 30.94288635 45.28463745 C29.11387171 50.77225659 29.11387171 50.77225659 28 53 C24.7 53 21.4 53 18 53 C17.52578613 51.66300049 17.05157227 50.32600098 16.56298828 48.94848633 C14.80097339 43.98149485 13.03764653 39.01496997 11.27392578 34.04858398 C10.51119853 31.90027336 9.74882568 29.75183688 8.98681641 27.60327148 C7.89058403 24.51252504 6.79307206 21.42223555 5.6953125 18.33203125 C5.3556546 17.37351761 5.0159967 16.41500397 4.66604614 15.42744446 C4.34586517 14.52688828 4.0256842 13.62633209 3.69580078 12.69848633 C3.27610519 11.51601067 3.27610519 11.51601067 2.84793091 10.30964661 C2.24023825 8.65437579 1.58284988 7.01702508 0.89401245 5.3938446 C0 3 0 3 0 0 Z " fill="#313A45" transform="translate(454,577)"/>
<path d="M0 0 C24.84161851 12.42080926 40.32123573 47.0728573 51.875 70.625 C52.31030029 71.49552002 52.74560059 72.36604004 53.1940918 73.26293945 C53.58121338 74.07593506 53.96833496 74.88893066 54.3671875 75.7265625 C54.70862793 76.43377441 55.05006836 77.14098633 55.40185547 77.86962891 C56.1520574 80.5415726 55.71417554 82.35123701 55 85 C52.83070762 82.83070762 52.14497605 81.17080476 50.9375 78.375 C45.7922299 67.97945428 38.52538237 64.78426471 28 60 C18.76 59.01 9.52 58.02 0 57 C0 38.19 0 19.38 0 0 Z " fill="#EA8030" transform="translate(418,312)"/>
<path d="M0 0 C1.19625 0.391875 2.3925 0.78375 3.625 1.1875 C4.40875 1.455625 5.1925 1.72375 6 2 C5.39009109 5.55780196 4.4216319 8.6828589 3 12 C2.01 12 1.02 12 0 12 C0 11.34 0 10.68 0 10 C-1.03125 9.87625 -2.0625 9.7525 -3.125 9.625 C-7 9 -7 9 -9.75 7.9375 C-16.2028737 6.07609413 -23.90076656 5.95038328 -30 9 C-31.23693142 12.71079427 -31.54655638 16.14287354 -31 20 C-27.96022371 24.49886891 -22.92624088 26.41170894 -17.74609375 27.453125 C-16.94300781 27.59234375 -16.13992187 27.7315625 -15.3125 27.875 C-6.59068766 29.51283652 1.53825521 32.16741328 7.01171875 39.44921875 C9.90832229 43.99448201 9.73641921 48.76009409 9 54 C6.37673999 59.58379631 1.50600492 64.22915951 -4 67 C-14.81781684 70.09365611 -28.54758303 69.27626377 -38.58984375 64.484375 C-41.24610688 62.84842688 -43.60974981 61.00113969 -46 59 C-45.01 56.03 -44.02 53.06 -43 50 C-38.79377323 51.49253208 -35.10414055 53.6107476 -31.28125 55.87890625 C-26.67629232 58.14195908 -22.0690303 58.18445219 -17 58.25 C-15.80375 58.27578125 -14.6075 58.3015625 -13.375 58.328125 C-9.70445734 57.97126669 -7.90747957 57.2221451 -5 55 C-2.94074319 51.91111478 -2.7609626 51.29064073 -2.875 47.8125 C-2.91625 46.554375 -2.9575 45.29625 -3 44 C-6.51282592 42.53642248 -10.02063971 41.35607704 -13.67578125 40.30078125 C-14.75150391 39.97787109 -15.82722656 39.65496094 -16.93554688 39.32226562 C-19.17077956 38.65389356 -21.41039921 38.00000619 -23.65429688 37.36132812 C-31.63209625 34.92750396 -38.23022836 31.90036521 -42.47265625 24.39453125 C-43.82480567 18.25477127 -44.15685319 12.2059182 -40.9375 6.625 C-31.60933362 -6.28073019 -13.54639281 -5.35069466 0 0 Z " fill="#2D3947" transform="translate(225,563)"/>
<path d="M0 0 C0.61875 0.433125 1.2375 0.86625 1.875 1.3125 C1.215 4.2825 0.555 7.2525 -0.125 10.3125 C-3.68280196 9.70259109 -6.8078589 8.7341319 -10.125 7.3125 C-10.125 6.6525 -10.125 5.9925 -10.125 5.3125 C-13.18845144 5.20427208 -16.2480601 5.12508521 -19.3125 5.0625 C-20.17681641 5.02898438 -21.04113281 4.99546875 -21.93164062 4.9609375 C-26.1861794 4.89573384 -28.48227716 4.91419289 -32.17578125 7.203125 C-34.49953579 9.71780927 -35.0590295 10.71876553 -35.4375 14.125 C-35.04647661 18.11343862 -33.97414102 19.54036279 -31.125 22.3125 C-28.31370032 23.83212145 -26.11806111 24.31331634 -22.9375 24.6875 C-17.95596784 25.50414462 -13.7227818 27.27663228 -9.125 29.3125 C-7.77728516 29.88871094 -7.77728516 29.88871094 -6.40234375 30.4765625 C-1.15270053 32.87330683 2.63698194 34.71745484 4.875 40.3125 C5.85436179 46.43351119 5.70726622 51.79907189 2.5625 57.25 C-1.47660195 62.34519742 -5.7963981 64.88168566 -12.125 66.3125 C-22.52291102 67.44897641 -33.93405427 67.94504645 -43.125 62.3125 C-44.07439453 61.74015625 -44.07439453 61.74015625 -45.04296875 61.15625 C-46.43925043 60.26160728 -47.78996881 59.29620719 -49.125 58.3125 C-48.61787967 54.59361761 -48.00891785 51.57795761 -46.125 48.3125 C-43.96399818 49.39049395 -41.80619281 50.47417 -39.65234375 51.56640625 C-38.79769531 51.99824219 -37.94304687 52.43007813 -37.0625 52.875 C-36.20527344 53.30941406 -35.34804688 53.74382813 -34.46484375 54.19140625 C-30.12808298 56.26928662 -26.59484383 56.5351241 -21.8125 56.625 C-20.51699219 56.66238281 -19.22148437 56.69976563 -17.88671875 56.73828125 C-13.56322145 56.24891343 -11.46799749 55.03848434 -8.125 52.3125 C-6.6466774 49.35585481 -7.06467217 46.57020263 -7.125 43.3125 C-13.31460043 39.49338484 -19.40949215 37.37853407 -26.37890625 35.37890625 C-34.49353271 33.00637041 -41.34837399 30.74516536 -46.20703125 23.43359375 C-48.29275103 18.61424974 -48.06293764 13.20907212 -46.4609375 8.26171875 C-43.56768313 2.58842431 -38.85390024 -1.72087751 -32.8828125 -3.8359375 C-21.75829245 -6.35687863 -10.06925772 -5.43739917 0 0 Z " fill="#2F3946" transform="translate(443.125,564.6875)"/>
<path d="M0 0 C0.66 0 1.32 0 2 0 C3.04497358 1.16965793 4.036096 2.38768092 5 3.625 C10.86880159 10.52084187 17.37466651 13.535619 26 16 C34.58 16.66 43.16 17.32 52 18 C52 36.81 52 55.62 52 75 C42.38343436 67.78757577 35.34653131 61.39759335 28 52 C27.28972656 51.12859375 26.57945312 50.2571875 25.84765625 49.359375 C18.40987272 39.94445914 12.73369183 29.50750221 7 19 C6.63648438 18.33774414 6.27296875 17.67548828 5.8984375 16.99316406 C2.83913214 11.36889232 0.29365804 6.46047689 0 0 Z " fill="#2968A5" transform="translate(366,293)"/>
<path d="M0 0 C3.3 0 6.6 0 10 0 C10.33 14.85 10.66 29.7 11 45 C18.72204381 36.80497345 18.72204381 36.80497345 26.37402344 28.54492188 C34.09989212 20.42342237 34.09989212 20.42342237 39.50585938 19.21875 C42.45179761 19.21875 45.11746654 19.41332426 48 20 C48 20.66 48 21.32 48 22 C46.63671875 23.33984375 46.63671875 23.33984375 44.6875 24.9375 C41.02019003 28.08373535 37.43329191 31.29012818 33.9375 34.625 C32.49697266 35.97464844 32.49697266 35.97464844 31.02734375 37.3515625 C28.80219645 39.75375248 28.80219645 39.75375248 28.83984375 42.32421875 C30.57772024 46.33245239 33.0451406 49.67800695 35.625 53.1875 C36.43662598 54.31490601 36.43662598 54.31490601 37.26464844 55.46508789 C38.8364586 57.64828805 40.41754372 59.82451073 42 62 C43.42505224 63.97349154 44.84004652 65.95312103 46.25 67.9375 C46.79140625 68.68902344 47.3328125 69.44054687 47.890625 70.21484375 C49 72 49 72 49 74 C44.82642954 74.67846219 41.1507104 74.90960152 37 74 C34.5903237 71.64571856 33.29749615 69.28390355 31.734375 66.3046875 C29.79052874 62.60087234 27.5038178 59.32280037 25.0625 55.9375 C21 50.28741241 21 50.28741241 21 48 C19.70756532 49.1241176 18.41607925 50.24932592 17.125 51.375 C16.40570313 52.00148438 15.68640625 52.62796875 14.9453125 53.2734375 C11.46980137 56.20200249 11.46980137 56.20200249 10.5859375 60.6953125 C10.50614935 62.1713933 10.43622145 63.64803263 10.375 65.125 C10.31699219 66.25615234 10.31699219 66.25615234 10.2578125 67.41015625 C10.16348969 69.27303184 10.08065338 71.13648255 10 73 C6.7 73 3.4 73 0 73 C0 48.91 0 24.82 0 0 Z " fill="#2C3643" transform="translate(247,557)"/>
<path d="M0 0 C5.09685951 3.13652893 7.97841037 5.92496257 9.44921875 11.90625 C10.32293217 18.61476225 9.871219 23.50819884 6.03125 29.15234375 C3.07564481 32.42905172 0.78346129 34.64615715 -3.63671875 35.5078125 C-13.61234678 35.57889774 -13.61234678 35.57889774 -17.67578125 32.21875 C-21.0039465 28.88196256 -23.34513065 25.51717968 -23.94921875 20.78515625 C-23.89338121 12.88414428 -23.43292757 8.14866461 -18.05078125 2.09375 C-13.06803466 -2.26615326 -6.00243942 -2.5737872 0 0 Z " fill="#F7F7F7" transform="translate(638.55078125,587.09375)"/>
<path d="M0 0 C3.3 0 6.6 0 10 0 C10.01213028 1.13632622 10.01213028 1.13632622 10.02450562 2.29560852 C10.10242174 9.43215677 10.18970309 16.56849969 10.28752708 23.70480061 C10.33748941 27.37371852 10.38381927 31.04260765 10.421875 34.71166992 C10.45872891 38.25201745 10.50508877 41.79212413 10.55806351 45.33226585 C10.58563623 47.34132917 10.60334326 49.35051999 10.62094116 51.35969543 C10.64081085 52.58073471 10.66068054 53.80177399 10.68115234 55.05981445 C10.69447601 56.13681107 10.70779968 57.21380768 10.7215271 58.32344055 C10.81340175 61.22452349 10.81340175 61.22452349 13 64 C15.43693311 64.36416047 15.43693311 64.36416047 18.125 64.1875 C19.49011719 64.14689453 19.49011719 64.14689453 20.8828125 64.10546875 C21.58148438 64.07066406 22.28015625 64.03585937 23 64 C23 66.64 23 69.28 23 72 C17.48195393 74.38618209 11.91881546 74.76879763 6 74 C3.4375 72.1875 3.4375 72.1875 2 70 C1.34 69.01 0.68 68.02 0 67 C-0.24050903 64.09565735 -0.24050903 64.09565735 -0.22705078 60.5090332 C-0.22734283 59.8551059 -0.22763489 59.20117859 -0.22793579 58.5274353 C-0.2265437 56.36841511 -0.21098857 54.20974107 -0.1953125 52.05078125 C-0.19158193 50.55291431 -0.18873517 49.05504493 -0.18673706 47.55717468 C-0.17910403 43.61649833 -0.15945845 39.67596962 -0.1373291 35.73535156 C-0.11686353 31.71356198 -0.10773382 27.69174853 -0.09765625 23.66992188 C-0.07621218 15.7798802 -0.04208029 7.88995847 0 0 Z " fill="#2E3743" transform="translate(365,557)"/>
<path d="M0 0 C3.3 0 6.6 0 10 0 C10.01213028 1.13632622 10.01213028 1.13632622 10.02450562 2.29560852 C10.10242174 9.43215677 10.18970309 16.56849969 10.28752708 23.70480061 C10.33748941 27.37371852 10.38381927 31.04260765 10.421875 34.71166992 C10.45872891 38.25201745 10.50508877 41.79212413 10.55806351 45.33226585 C10.58563623 47.34132917 10.60334326 49.35051999 10.62094116 51.35969543 C10.64081085 52.58073471 10.66068054 53.80177399 10.68115234 55.05981445 C10.69447601 56.13681107 10.70779968 57.21380768 10.7215271 58.32344055 C10.81340175 61.22452349 10.81340175 61.22452349 13 64 C15.20725073 64.36362818 15.20725073 64.36362818 17.625 64.1875 C18.85089844 64.14689453 18.85089844 64.14689453 20.1015625 64.10546875 C21.04128906 64.05326172 21.04128906 64.05326172 22 64 C22.33 66.64 22.66 69.28 23 72 C17.50225366 74.37740382 11.89570537 74.89736764 6 74 C2.58688333 71.47429367 1.33362232 70.00086696 0 66 C-0.08942453 63.86848273 -0.11758899 61.73421849 -0.11352539 59.60083008 C-0.11367142 58.95665634 -0.11381744 58.3124826 -0.1139679 57.64878845 C-0.11327195 55.52233498 -0.10549448 53.3959694 -0.09765625 51.26953125 C-0.09579094 49.79408313 -0.09436757 48.31863439 -0.09336853 46.84318542 C-0.08955226 42.96174405 -0.07972956 39.08034015 -0.06866455 35.19891357 C-0.05843131 31.23743192 -0.05386681 27.27594419 -0.04882812 23.31445312 C-0.0381065 15.54295167 -0.02104075 7.77148109 0 0 Z " fill="#2B3440" transform="translate(333,557)"/>
<path d="M0 0 C3.3 0 6.6 0 10 0 C10 17.82 10 35.64 10 54 C6.37 54 2.74 54 -1 54 C-1.02464032 46.47029868 -1.04283141 38.94062061 -1.05493164 31.41088867 C-1.0599737 28.84708243 -1.06680714 26.28327909 -1.07543945 23.71948242 C-1.08751064 20.04344979 -1.09322942 16.36745502 -1.09765625 12.69140625 C-1.10281754 11.53725723 -1.10797882 10.38310822 -1.11329651 9.19398499 C-1.11337204 8.13296066 -1.11344757 7.07193634 -1.11352539 5.97875977 C-1.115746 5.03944107 -1.11796661 4.10012238 -1.12025452 3.13233948 C-1 1 -1 1 0 0 Z " fill="#3C4651" transform="translate(306,577)"/>
<path d="M0 0 C1.175625 0.01353516 1.175625 0.01353516 2.375 0.02734375 C4.29180055 0.05071937 6.20844191 0.08658347 8.125 0.125 C8.90663772 8.09770471 8.90663772 8.09770471 5.9375 12 C5.009375 12.70125 4.08125 13.4025 3.125 14.125 C2.42375 14.723125 1.7225 15.32125 1 15.9375 C-3.57778584 17.82832458 -8.00559781 17.89154757 -12.875 17.125 C-16.0625 15.0625 -16.0625 15.0625 -17.875 12.125 C-18.35541628 8.64198195 -18.63931937 6.35640344 -16.75 3.3125 C-11.40469088 -0.07286244 -6.09666694 -0.13433334 0 0 Z " fill="#F4F4F4" transform="translate(569.875,605.875)"/>
<path d="M0 0 C3.3 0 6.6 0 10 0 C10 3.63 10 7.26 10 11 C6.7 11 3.4 11 0 11 C0 7.37 0 3.74 0 0 Z " fill="#2F3945" transform="translate(306,557)"/>
<path d="M0 0 C2.79145973 2.79145973 2.28614235 4.76293565 2.32861328 8.57861328 C2.3232959 9.4601709 2.31797852 10.34172852 2.3125 11.25 C2.30976074 12.1457373 2.30702148 13.04147461 2.30419922 13.96435547 C2.00822469 32.99177531 2.00822469 32.99177531 -3 38 C-3.3553877 22.08652846 -3.3553877 22.08652846 -1.44140625 14.109375 C-0.80512414 11.06873483 -0.9393235 8.09450139 -1 5 C-0.71479595 3.32442621 -0.40044304 1.65182755 0 0 Z " fill="#DA7916" transform="translate(484,433)"/>
<path d="M0 0 C0.33 0 0.66 0 1 0 C1.05534912 0.81041748 1.11069824 1.62083496 1.16772461 2.45581055 C1.37789832 5.52924569 1.58857255 8.60264605 1.79956055 11.67602539 C1.93380379 13.63360077 2.06749564 15.59121394 2.20117188 17.54882812 C2.76134643 25.70247993 3.35891814 33.8523068 4 42 C0.90333778 39.03797527 0.02611451 37.83353038 -0.11352539 33.37646484 C-0.11336679 31.82128007 -0.10770195 30.26608983 -0.09765625 28.7109375 C-0.0962413 27.89251373 -0.09482635 27.07408997 -0.09336853 26.23086548 C-0.0877629 23.61220675 -0.07520948 20.99363296 -0.0625 18.375 C-0.05748572 16.60156373 -0.05292269 14.82812613 -0.04882812 13.0546875 C-0.03779164 8.70309218 -0.02052325 4.3515605 0 0 Z " fill="#48B2D7" transform="translate(133,565)"/>
<path d="M0 0 C-1.40157754 3.18940276 -3.052697 5.26920999 -5.5546875 7.6796875 C-6.25207031 8.36160156 -6.94945312 9.04351562 -7.66796875 9.74609375 C-9.13137224 11.15769535 -10.59491241 12.56915526 -12.05859375 13.98046875 C-17.08758729 18.89832431 -21.02798541 23.56063505 -24 30 C-24.33 29.01 -24.66 28.02 -25 27 C-21.21863468 19.64166748 -8.94484589 0 0 0 Z " fill="#43ACD2" transform="translate(343,202)"/>
<path d="M0 0 C0.72074707 0.32669678 1.44149414 0.65339355 2.18408203 0.98999023 C5.0590307 2.02117305 7.02418426 2.2201236 10.0546875 2.16015625 C10.99957031 2.14919922 11.94445312 2.13824219 12.91796875 2.12695312 C13.89378906 2.10568359 14.86960938 2.08441406 15.875 2.0625 C22.04008689 1.9516762 27.91862327 1.90738496 34 3 C34 3.33 34 3.66 34 4 C29.33691801 4.02468646 24.67387392 4.04285349 20.01074219 4.05493164 C18.42382139 4.05996588 16.83690523 4.06679369 15.25 4.07543945 C12.97134251 4.08754482 10.69274624 4.09323733 8.4140625 4.09765625 C7.34679428 4.10539818 7.34679428 4.10539818 6.25796509 4.11329651 C1.22774341 4.11387171 1.22774341 4.11387171 -1 3 C-0.67 2.01 -0.34 1.02 0 0 Z " fill="#49B9E0" transform="translate(138,606)"/>
<path d="M0 0 C2.16874252 0.50603992 3.99967627 0.99983813 6 2 C5.649375 2.94875 5.29875 3.8975 4.9375 4.875 C3.64973223 7.87060172 3.64973223 7.87060172 5 10 C2.54765115 9.01906046 1.2190732 8.31296172 -0.3125 6.125 C-1.1132654 3.64990694 -0.86325845 2.41712366 0 0 Z " fill="#333E4C" transform="translate(619,619)"/>
<path d="M0 0 C3.64666307 2.26786278 4.67897228 4.06404326 5.75 8.1875 C5.99234375 9.08855469 6.2346875 9.98960937 6.484375 10.91796875 C6.65453125 11.60503906 6.8246875 12.29210937 7 13 C6.34 13.66 5.68 14.32 5 15 C4.16260219 12.8765984 3.33019717 10.7512272 2.5 8.625 C1.80390625 6.84996094 1.80390625 6.84996094 1.09375 5.0390625 C0 2 0 2 0 0 Z " fill="#3B7EAF" transform="translate(360,280)"/>
<path d="M0 0 C0.99 0.33 1.98 0.66 3 1 C2.19175781 1.66386719 1.38351562 2.32773438 0.55078125 3.01171875 C-2.51907362 6.6081031 -2.77347957 9.28179415 -2.8125 13.8125 C-2.83763672 14.50537109 -2.86277344 15.19824219 -2.88867188 15.91210938 C-2.94713263 17.60747122 -2.97653047 19.30379287 -3 21 C-3.33 21 -3.66 21 -4 21 C-4.10812003 18.24894578 -4.18734945 15.50214913 -4.25 12.75 C-4.28351563 11.97269531 -4.31703125 11.19539062 -4.3515625 10.39453125 C-4.45112665 4.57002825 -4.45112665 4.57002825 -1.984375 1.453125 C-1.00210937 0.73382813 -1.00210937 0.73382813 0 0 Z " fill="#36B6DF" transform="translate(477,155)"/>
<path d="M0 0 C0.33 0 0.66 0 1 0 C1.05410687 1.77049689 1.09284119 3.54146849 1.125 5.3125 C1.14820313 6.29863281 1.17140625 7.28476562 1.1953125 8.30078125 C1 11 1 11 -1 14 C-1.39013716 15.9896995 -1.73202649 17.99019869 -2 20 C-2.33 20 -2.66 20 -3 20 C-3.40850553 12.91923749 -1.90420731 6.80074041 0 0 Z " fill="#FDD358" transform="translate(485,457)"/>
<path d="M0 0 C0.33 0 0.66 0 1 0 C1.36923077 6.52307692 1.36923077 6.52307692 -0.5 8.9375 C-0.995 9.288125 -1.49 9.63875 -2 10 C-2.66 9.67 -3.32 9.34 -4 9 C-2.25 2.25 -2.25 2.25 0 0 Z " fill="#F5A144" transform="translate(480,478)"/>
<path d="M0 0 C3.458176 -0.0868329 6.91607344 -0.14033282 10.375 -0.1875 C11.35984375 -0.21263672 12.3446875 -0.23777344 13.359375 -0.26367188 C14.77089844 -0.27817383 14.77089844 -0.27817383 16.2109375 -0.29296875 C17.08024902 -0.3086792 17.94956055 -0.32438965 18.84521484 -0.34057617 C19.55629395 -0.22818604 20.26737305 -0.1157959 21 0 C21.66 0.99 22.32 1.98 23 3 C15.41 2.34 7.82 1.68 0 1 C0 0.67 0 0.34 0 0 Z " fill="#74ACD4" transform="translate(394,365)"/>
<path d="M0 0 C0.28875 0.639375 0.5775 1.27875 0.875 1.9375 C1.82823451 4.15206079 1.82823451 4.15206079 4 5 C4 6.65 4 8.3 4 10 C3.67 9.01 3.34 8.02 3 7 C2.01 7.33 1.02 7.66 0 8 C-0.66 7.01 -1.32 6.02 -2 5 C-2.66 4.67 -3.32 4.34 -4 4 C-3.01 3.67 -2.02 3.34 -1 3 C-0.67 2.01 -0.34 1.02 0 0 Z " fill="#4B5563" transform="translate(576,616)"/>
<path d="M0 0 C2 2 2 2 2.25 5.5 C2 9 2 9 0 11 C-0.84098656 6.98195309 -1.05404945 3.98196457 0 0 Z " fill="#E5771B" transform="translate(484,433)"/>
<path d="M0 0 C0.33 0 0.66 0 1 0 C1.66 3.63 2.32 7.26 3 11 C2.01 11.33 1.02 11.66 0 12 C0 8.04 0 4.08 0 0 Z " fill="#F9AD59" transform="translate(481,473)"/>
<path d="M0 0 C-2.25 2.0625 -2.25 2.0625 -5 4 C-7.3125 3.75 -7.3125 3.75 -9 3 C-5.92807025 0.26939578 -4.09590633 -0.34132553 0 0 Z " fill="#53BADD" transform="translate(359,193)"/>
</svg>
